#N canvas 399 77 722 425 10;
#X obj 1 -113 inlet;
#X obj 283 -24 inlet;
#X obj 40 260 outlet;
#X obj 100 260 outlet;
#X obj 161 260 outlet;
#X obj 221 260 outlet;
#X obj 40 183 gate 5;
#X obj 273 260 outlet;
#X obj 330 260 outlet;
#X obj 390 260 outlet;
#X obj 451 260 outlet;
#X obj 511 260 outlet;
#X obj 330 183 gate 5;
#X obj 563 260 outlet;
#X floatatom 40 112 5 0 0 0 - - -;
#X floatatom 81 112 5 0 0 0 - - -;
#X obj 40 -14 moses 6;
#X floatatom 1 -84 5 0 0 0 - - -;
#X obj 283 13 t a a;
#X obj 1 -52 moses 1;
#X msg 1 -15 0;
#X msg 49 38 0;
#X msg 93 37 0;
#X obj 80 69 - 5;
#X connect 0 0 17 0;
#X connect 1 0 18 0;
#X connect 6 0 2 0;
#X connect 6 1 3 0;
#X connect 6 2 4 0;
#X connect 6 3 5 0;
#X connect 6 4 7 0;
#X connect 12 0 8 0;
#X connect 12 1 9 0;
#X connect 12 2 10 0;
#X connect 12 3 11 0;
#X connect 12 4 13 0;
#X connect 14 0 6 0;
#X connect 15 0 12 0;
#X connect 16 0 14 0;
#X connect 16 0 21 0;
#X connect 16 1 22 0;
#X connect 16 1 23 0;
#X connect 17 0 19 0;
#X connect 18 0 6 1;
#X connect 18 1 12 1;
#X connect 19 0 20 0;
#X connect 19 1 16 0;
#X connect 20 0 14 0;
#X connect 20 0 15 0;
#X connect 21 0 15 0;
#X connect 22 0 14 0;
#X connect 23 0 15 0;
