#N canvas 699 144 448 487 10;
#X obj 30 -3 ctlin;
#X obj 30 57 swap;
#X obj 33 115 route 1 2 3 4 5 6 7 8;
#X obj 31 86 pack;
#X floatatom 134 193 5 0 0 0 - - -;
#X floatatom 189 193 3 0 0 0 - - -;
#X text 168 193 CC;
#X text 214 193 Ch.;
#X floatatom 40 218 5 0 0 0 - - -;
#X floatatom 61 239 5 0 0 0 - - -;
#X floatatom 83 218 5 0 0 0 - - -;
#X floatatom 105 239 5 0 0 0 - - -;
#X floatatom 128 217 5 0 0 0 - - -;
#X floatatom 150 238 5 0 0 0 - - -;
#X floatatom 172 217 5 0 0 0 - - -;
#X floatatom 194 238 5 0 0 0 - - -;
#X text 36 192 AKAI LPD8 knob;
#X obj 38 284 outlet;
#X obj 58 310 outlet;
#X obj 86 283 outlet;
#X obj 106 309 outlet;
#X obj 139 283 outlet;
#X obj 159 309 outlet;
#X obj 187 282 outlet;
#X obj 207 308 outlet;
#X connect 0 0 1 0;
#X connect 0 1 1 1;
#X connect 0 1 4 0;
#X connect 0 2 5 0;
#X connect 1 0 3 0;
#X connect 1 1 3 1;
#X connect 2 0 8 0;
#X connect 2 1 9 0;
#X connect 2 2 10 0;
#X connect 2 3 11 0;
#X connect 2 4 12 0;
#X connect 2 5 13 0;
#X connect 2 6 14 0;
#X connect 2 7 15 0;
#X connect 3 0 2 0;
#X connect 8 0 17 0;
#X connect 9 0 18 0;
#X connect 10 0 19 0;
#X connect 11 0 20 0;
#X connect 12 0 21 0;
#X connect 13 0 22 0;
#X connect 14 0 23 0;
#X connect 15 0 24 0;
#X coords 0 -1 1 1 210 90 1 30 170;
