#N canvas 378 270 450 300 10;
#X obj 100 101 tgl 15 0 empty empty empty 17 7 0 10 -262144 -1 -1 0
1;
#X obj 100 139 metro 20;
#X obj 98 171 outlet;
#X floatatom 115 100 6 0 0 0 - - -;
#X obj 98 54 int \$1;
#X obj 98 26 loadbang;
#X obj 143 53 int \$2;
#X text 237 46 Quick Metro;
#X obj 192 54 inlet;
#X obj 48 53 inlet;
#X connect 0 0 1 0;
#X connect 1 0 2 0;
#X connect 3 0 1 1;
#X connect 4 0 3 0;
#X connect 5 0 4 0;
#X connect 5 0 6 0;
#X connect 6 0 0 0;
#X connect 8 0 3 0;
#X connect 9 0 0 0;
#X coords 0 -1 1 1 53 16 2 100 100;
